{
   "accessors" : [
      {
         "bufferView" : 0,
         "componentType" : 5123,
         "count" : 9936,
         "max" : [ 9935 ],
         "min" : [ 0 ],
         "name" : "buffer-0-accessor-indices-buffer-0-mesh-0",
         "type" : "SCALAR"
      },
      {
         "bufferView" : 2,
         "componentType" : 5126,
         "count" : 9936,
         "max" : [ 22.7520637512207, 39.29109954833984, 48.22771453857422 ],
         "min" : [ -22.7520637512207, -9.999999747378752e-05, -48.22771453857422 ],
         "name" : "buffer-0-accessor-position-buffer-0-mesh-0",
         "type" : "VEC3"
      },
      {
         "bufferView" : 2,
         "byteOffset" : 119232,
         "componentType" : 5126,
         "count" : 9936,
         "max" : [ 1, 1, 1 ],
         "min" : [ -1, -1, -1 ],
         "name" : "buffer-0-accessor-normal-buffer-0-mesh-0",
         "type" : "VEC3"
      },
      {
         "bufferView" : 1,
         "componentType" : 5126,
         "count" : 9936,
         "max" : [ 0.9676390290260315, 0 ],
         "min" : [ 0, -0.744737982749939 ],
         "name" : "buffer-0-accessor-texcoord-buffer-0-mesh-0",
         "type" : "VEC2"
      },
      {
         "bufferView" : 3,
         "componentType" : 5126,
         "count" : 0,
         "max" : [ 0, 0, 0, 0 ],
         "min" : [ 0, 0, 0, 0 ],
         "name" : "buffer-0-accessor-color-buffer-0-mesh-0",
         "type" : "VEC4"
      }
   ],
   "asset" : {
      "extras" : {
         "GOOGLE_processor_version" : 294144208
      },
      "generator" : "Obj2GltfConverter",
      "version" : "2.0"
   },
   "bufferViews" : [
      {
         "buffer" : 0,
         "byteLength" : 19872,
         "byteStride" : 0,
         "name" : "buffer-0-bufferview-ushort",
         "target" : 34963
      },
      {
         "buffer" : 0,
         "byteLength" : 79488,
         "byteOffset" : 19872,
         "byteStride" : 8,
         "name" : "buffer-0-bufferview-vec2",
         "target" : 34962
      },
      {
         "buffer" : 0,
         "byteLength" : 238464,
         "byteOffset" : 99360,
         "byteStride" : 12,
         "name" : "buffer-0-bufferview-vec3",
         "target" : 34962
      },
      {
         "buffer" : 0,
         "byteLength" : 1,
         "name" : "buffer-0-bufferview-vec4"
      }
   ],
   "buffers" : [
      {
         "byteLength" : 337824,
         "name" : "buffer-0",
         "uri" : "1385 Jeep.bin"
      }
   ],
   "cameras" : [
      {
         "perspective" : {
            "yfov" : 0.7853981633974483,
            "znear" : 0.1000000014901161
         },
         "type" : "perspective"
      }
   ],
   "extensions" : {
      "KHR_lights_punctual" : {
         "lights" : [
            {
               "color" : [ 1, 0.9333333333333333, 0.8666666666666667 ],
               "intensity" : 0.25,
               "name" : "headLight",
               "type" : "directional"
            },
            {
               "color" : [ 1, 0.9333333333333333, 0.8666666666666667 ],
               "intensity" : 0.324999988079071,
               "name" : "keyLight",
               "type" : "directional"
            }
         ]
      }
   },
   "extensionsUsed" : [ "GOOGLE_backgrounds", "GOOGLE_camera_settings", "KHR_lights_punctual" ],
   "extras" : {
      "GOOGLE_initial_camera_motion" : {
         "motionPath" : "FULL_ROTATION"
      },
      "GOOGLE_lighting_rig" : {
         "disableShadows" : false
      }
   },
   "images" : [
      {
         "mimeType" : "image/png",
         "name" : "Mat-image",
         "uri" : "1385 Jeep.png"
      }
   ],
   "materials" : [
      {
         "doubleSided" : true,
         "name" : "Mat",
         "pbrMetallicRoughness" : {
            "baseColorTexture" : {
               "index" : 0
            },
            "metallicFactor" : 0,
            "roughnessFactor" : 0.9699476628648295
         }
      }
   ],
   "meshes" : [
      {
         "name" : "buffer-0-mesh-0",
         "primitives" : [
            {
               "attributes" : {
                  "NORMAL" : 2,
                  "POSITION" : 1,
                  "TEXCOORD_0" : 3
               },
               "indices" : 0,
               "material" : 0
            }
         ]
      }
   ],
   "nodes" : [
      {
         "mesh" : 0,
         "name" : "node-0"
      },
      {
         "children" : [ 2 ]
      },
      {
         "children" : [ 3 ],
         "extras" : {
            "isTransformNode" : 1
         },
         "translation" : [ -0.2411385726928713, 21.11909275204403, 0.9009095715461873 ]
      },
      {
         "children" : [ 0 ],
         "translation" : [ 0.2411385726928713, -21.11909275204403, -0.9009095715461873 ]
      },
      {
         "camera" : 0,
         "children" : [ 5 ],
         "rotation" : [
            -0.1930493347424091,
            -0.4565588222627039,
            -0.1021938067671002,
            0.8624629974834019
         ],
         "translation" : [ -128.4430230394476, 94.17857335369048, 88.05196113704483 ]
      },
      {
         "extensions" : {
            "KHR_lights_punctual" : {
               "light" : 0
            }
         },
         "extras" : {
            "isHeadLight" : 1
         },
         "name" : "headLightNode",
         "translation" : [ -53.89860984152652, 26.94930492076326, 26.94930492076326 ]
      },
      {
         "extensions" : {
            "KHR_lights_punctual" : {
               "light" : 1
            }
         },
         "extras" : {
            "isKeyLight" : 1
         },
         "name" : "keyLightNode",
         "rotation" : [ -0.7505326882858236, -0.3752663441429118, 0, 0.5439447166468927 ],
         "scale" : [ 0, 0, 54.43759593994179 ],
         "translation" : [ -54.43775871833103, 124.5042835752987, -53.66670105144127 ]
      }
   ],
   "samplers" : [
      {
         "name" : "Mat-sampler",
         "wrapS" : 10497,
         "wrapT" : 10497
      }
   ],
   "scene" : 0,
   "scenes" : [
      {
         "extensions" : {
            "GOOGLE_backgrounds" : {
               "color" : [ 0.611764705882353, 0.1529411764705882, 0.6901960784313725 ]
            },
            "GOOGLE_camera_settings" : {}
         },
         "extras" : {
            "GOOGLE_camera_index" : {
               "cameraIndex" : 0,
               "nodeIndex" : 4
            },
            "GOOGLE_geometry_data" : {
               "stats" : {
                  "centroid" : [ -0.0001627783892427282, 15.62909169541516, 0.7708948885005166 ],
                  "radius" : 53.89860984152652,
                  "stdev" : 35.49316277147879
               },
               "visualCenterPoint" : [ -0.2411385726928713, 21.11909275204403, 0.9009095715461873 ]
            },
            "GOOGLE_hemi_light" : {
               "groundColor" : [ 0.611764705882353, 0.1529411764705882, 0.6901960784313725 ]
            }
         },
         "name" : "scene-0",
         "nodes" : [ 1, 4, 6 ]
      }
   ],
   "textures" : [
      {
         "name" : "Mat-texture",
         "sampler" : 0,
         "source" : 0
      }
   ]
}
